<mxfile host="app.diagrams.net" agent="Mozilla/5.0 (Windows NT 10.0; Win64; x64) AppleWebKit/537.36 (KHTML, like Gecko) Chrome/126.0.0.0 Safari/537.36 OPR/112.0.0.0" version="24.7.12">
  <diagram name="Página-1" id="qIUm-NXkEGmmr5HEpveH">
    <mxGraphModel grid="1" page="1" gridSize="10" guides="1" tooltips="1" connect="1" arrows="1" fold="1" pageScale="1" pageWidth="827" pageHeight="1169" math="0" shadow="0">
      <root>
        <mxCell id="0" />
        <mxCell id="1" parent="0" />
        <mxCell id="wsyl__wpP291152e83Fh-2" value="&lt;div&gt;&lt;br&gt;&lt;/div&gt;" style="rounded=0;whiteSpace=wrap;html=1;" vertex="1" parent="1">
          <mxGeometry x="130" y="20" width="560" height="400" as="geometry" />
        </mxCell>
        <mxCell id="wsyl__wpP291152e83Fh-1" value="Usuario Administrador" style="shape=umlActor;verticalLabelPosition=bottom;verticalAlign=top;html=1;outlineConnect=0;" vertex="1" parent="1">
          <mxGeometry x="50" y="225" width="30" height="60" as="geometry" />
        </mxCell>
        <mxCell id="QN4ErK6hGuZmT8oQT1Es-2" style="edgeStyle=orthogonalEdgeStyle;rounded=0;orthogonalLoop=1;jettySize=auto;html=1;entryX=0.5;entryY=0;entryDx=0;entryDy=0;" edge="1" parent="1" source="wsyl__wpP291152e83Fh-5" target="wsyl__wpP291152e83Fh-6">
          <mxGeometry relative="1" as="geometry" />
        </mxCell>
        <mxCell id="wsyl__wpP291152e83Fh-5" value="Diseñar Evento" style="ellipse;whiteSpace=wrap;html=1;" vertex="1" parent="1">
          <mxGeometry x="170" y="60" width="120" height="80" as="geometry" />
        </mxCell>
        <mxCell id="QN4ErK6hGuZmT8oQT1Es-6" style="edgeStyle=orthogonalEdgeStyle;rounded=0;orthogonalLoop=1;jettySize=auto;html=1;entryX=0.5;entryY=0;entryDx=0;entryDy=0;" edge="1" parent="1" source="wsyl__wpP291152e83Fh-6" target="QN4ErK6hGuZmT8oQT1Es-5">
          <mxGeometry relative="1" as="geometry" />
        </mxCell>
        <mxCell id="wsyl__wpP291152e83Fh-6" value="Configurar Evento" style="ellipse;whiteSpace=wrap;html=1;" vertex="1" parent="1">
          <mxGeometry x="170" y="170" width="120" height="80" as="geometry" />
        </mxCell>
        <mxCell id="syUm3DsR0cCa5fwL_SAr-6" value="Usuario" style="shape=umlActor;verticalLabelPosition=bottom;verticalAlign=top;html=1;outlineConnect=0;" vertex="1" parent="1">
          <mxGeometry x="215" y="525" width="30" height="60" as="geometry" />
        </mxCell>
        <mxCell id="QN4ErK6hGuZmT8oQT1Es-1" value="" style="endArrow=classic;html=1;rounded=0;exitX=0.5;exitY=0.5;exitDx=0;exitDy=0;exitPerimeter=0;entryX=0;entryY=0.5;entryDx=0;entryDy=0;" edge="1" parent="1" source="wsyl__wpP291152e83Fh-1" target="wsyl__wpP291152e83Fh-5">
          <mxGeometry width="50" height="50" relative="1" as="geometry">
            <mxPoint x="390" y="410" as="sourcePoint" />
            <mxPoint x="440" y="360" as="targetPoint" />
          </mxGeometry>
        </mxCell>
        <mxCell id="QN4ErK6hGuZmT8oQT1Es-4" value="" style="endArrow=classic;html=1;rounded=0;exitX=0.5;exitY=0.5;exitDx=0;exitDy=0;exitPerimeter=0;entryX=0;entryY=0.5;entryDx=0;entryDy=0;" edge="1" parent="1" source="wsyl__wpP291152e83Fh-1" target="wsyl__wpP291152e83Fh-6">
          <mxGeometry width="50" height="50" relative="1" as="geometry">
            <mxPoint x="390" y="410" as="sourcePoint" />
            <mxPoint x="440" y="360" as="targetPoint" />
          </mxGeometry>
        </mxCell>
        <mxCell id="QN4ErK6hGuZmT8oQT1Es-9" style="edgeStyle=orthogonalEdgeStyle;rounded=0;orthogonalLoop=1;jettySize=auto;html=1;entryX=0;entryY=0.5;entryDx=0;entryDy=0;" edge="1" parent="1" source="QN4ErK6hGuZmT8oQT1Es-5" target="QN4ErK6hGuZmT8oQT1Es-8">
          <mxGeometry relative="1" as="geometry" />
        </mxCell>
        <mxCell id="QN4ErK6hGuZmT8oQT1Es-5" value="Publicar Evento" style="ellipse;whiteSpace=wrap;html=1;" vertex="1" parent="1">
          <mxGeometry x="170" y="285" width="120" height="80" as="geometry" />
        </mxCell>
        <mxCell id="QN4ErK6hGuZmT8oQT1Es-7" value="" style="endArrow=classic;html=1;rounded=0;exitX=0.5;exitY=0.5;exitDx=0;exitDy=0;exitPerimeter=0;entryX=0.008;entryY=0.425;entryDx=0;entryDy=0;entryPerimeter=0;" edge="1" parent="1" source="wsyl__wpP291152e83Fh-1" target="QN4ErK6hGuZmT8oQT1Es-5">
          <mxGeometry width="50" height="50" relative="1" as="geometry">
            <mxPoint x="390" y="410" as="sourcePoint" />
            <mxPoint x="440" y="360" as="targetPoint" />
          </mxGeometry>
        </mxCell>
        <mxCell id="QN4ErK6hGuZmT8oQT1Es-15" style="edgeStyle=orthogonalEdgeStyle;rounded=0;orthogonalLoop=1;jettySize=auto;html=1;entryX=0;entryY=0.5;entryDx=0;entryDy=0;" edge="1" parent="1" source="QN4ErK6hGuZmT8oQT1Es-8" target="QN4ErK6hGuZmT8oQT1Es-14">
          <mxGeometry relative="1" as="geometry" />
        </mxCell>
        <mxCell id="QN4ErK6hGuZmT8oQT1Es-8" value="Inscribir Usuarios" style="ellipse;whiteSpace=wrap;html=1;" vertex="1" parent="1">
          <mxGeometry x="354" y="285" width="120" height="80" as="geometry" />
        </mxCell>
        <mxCell id="QN4ErK6hGuZmT8oQT1Es-10" style="edgeStyle=orthogonalEdgeStyle;rounded=0;orthogonalLoop=1;jettySize=auto;html=1;entryX=0.5;entryY=0;entryDx=0;entryDy=0;entryPerimeter=0;" edge="1" parent="1" source="QN4ErK6hGuZmT8oQT1Es-5" target="syUm3DsR0cCa5fwL_SAr-6">
          <mxGeometry relative="1" as="geometry" />
        </mxCell>
        <mxCell id="QN4ErK6hGuZmT8oQT1Es-11" value="Enviar Notificacion" style="edgeLabel;html=1;align=center;verticalAlign=middle;resizable=0;points=[];" connectable="0" vertex="1" parent="QN4ErK6hGuZmT8oQT1Es-10">
          <mxGeometry x="0.3125" relative="1" as="geometry">
            <mxPoint as="offset" />
          </mxGeometry>
        </mxCell>
        <mxCell id="QN4ErK6hGuZmT8oQT1Es-12" value="" style="endArrow=classic;html=1;rounded=0;exitX=0.75;exitY=0.1;exitDx=0;exitDy=0;exitPerimeter=0;entryX=0.4;entryY=1.013;entryDx=0;entryDy=0;entryPerimeter=0;" edge="1" parent="1" source="syUm3DsR0cCa5fwL_SAr-6" target="QN4ErK6hGuZmT8oQT1Es-8">
          <mxGeometry width="50" height="50" relative="1" as="geometry">
            <mxPoint x="390" y="410" as="sourcePoint" />
            <mxPoint x="440" y="360" as="targetPoint" />
          </mxGeometry>
        </mxCell>
        <mxCell id="QN4ErK6hGuZmT8oQT1Es-13" value="Solicitar Inscripcion" style="edgeLabel;html=1;align=center;verticalAlign=middle;resizable=0;points=[];" connectable="0" vertex="1" parent="QN4ErK6hGuZmT8oQT1Es-12">
          <mxGeometry x="0.0188" y="1" relative="1" as="geometry">
            <mxPoint x="1" as="offset" />
          </mxGeometry>
        </mxCell>
        <mxCell id="QN4ErK6hGuZmT8oQT1Es-17" style="edgeStyle=orthogonalEdgeStyle;rounded=0;orthogonalLoop=1;jettySize=auto;html=1;entryX=0.5;entryY=1;entryDx=0;entryDy=0;" edge="1" parent="1" source="QN4ErK6hGuZmT8oQT1Es-14" target="QN4ErK6hGuZmT8oQT1Es-16">
          <mxGeometry relative="1" as="geometry" />
        </mxCell>
        <mxCell id="QN4ErK6hGuZmT8oQT1Es-14" value="Ejecutar Evento" style="ellipse;whiteSpace=wrap;html=1;" vertex="1" parent="1">
          <mxGeometry x="530" y="285" width="126" height="80" as="geometry" />
        </mxCell>
        <mxCell id="QN4ErK6hGuZmT8oQT1Es-16" value="Registrar y Reportar Evento" style="ellipse;whiteSpace=wrap;html=1;" vertex="1" parent="1">
          <mxGeometry x="533" y="170" width="120" height="80" as="geometry" />
        </mxCell>
      </root>
    </mxGraphModel>
  </diagram>
</mxfile>
